<?xml version="1.0" encoding="utf-8"?>
<!-- Generator: Adobe Illustrator 17.0.0, SVG Export Plug-In . SVG Version: 6.00 Build 0)  -->
<!DOCTYPE svg PUBLIC "-//W3C//DTD SVG 1.1//EN" "http://www.w3.org/Graphics/SVG/1.1/DTD/svg11.dtd">
<svg version="1.1" id="图层_1" xmlns="http://www.w3.org/2000/svg" xmlns:xlink="http://www.w3.org/1999/xlink" x="0px" y="0px"
	 width="287.5px" height="40.167px" viewBox="0 0 287.5 40.167" enable-background="new 0 0 287.5 40.167" xml:space="preserve">
<g>
	<text transform="matrix(1 0 0 1 1.7536 11.2663)" fill="#5D5D5D" font-family="'STHeitiSC-Light'" font-size="12">岗位应聘</text>
</g>
<g>
	<text transform="matrix(1 0 0 1 80.3092 11.2663)" fill="#5D5D5D" font-family="'STHeitiSC-Light'" font-size="12">岗位培训</text>
</g>
<g>
	<text transform="matrix(1 0 0 1 158.8649 11.2663)" fill="#5D5D5D" font-family="'STHeitiSC-Light'" font-size="12">岗位认证</text>
</g>
<g>
	<text transform="matrix(1 0 0 1 237.4206 11.2663)" fill="#5D5D5D" font-family="'STHeitiSC-Light'" font-size="12">承接工单</text>
</g>
<g>
	<rect x="24.667" y="26.667" fill="#C9C9C9" width="236" height="4"/>
	<circle fill="#C9C9C9" cx="25.294" cy="28.204" r="11"/>
	<circle fill="#0077D8" cx="25.294" cy="28.204" r="8"/>
	<circle fill="#C9C9C9" cx="103.794" cy="28.204" r="11"/>
	<circle fill="#C9C9C9" cx="182.294" cy="28.204" r="11"/>
	<circle fill="#C9C9C9" cx="260.794" cy="28.204" r="11"/>
	<text transform="matrix(1 0 0 1 22.3854 32.4958)" fill="#FFFFFF" font-family="'STHeitiSC-Light'" font-size="10.5">1</text>
	<circle fill="#0077D8" cx="103.794" cy="28.204" r="8"/>
	<circle fill="#0077D8" cx="182.294" cy="28.204" r="8"/>
	<circle fill="#0077D8" cx="260.794" cy="28.204" r="8"/>
	<text transform="matrix(1 0 0 1 100.8854 32.4958)" fill="#FFFFFF" font-family="'STHeitiSC-Light'" font-size="10.5">2</text>
	<text transform="matrix(1 0 0 1 179.3854 32.4958)" fill="#FFFFFF" font-family="'STHeitiSC-Light'" font-size="10.5">3</text>
	<text transform="matrix(1 0 0 1 257.8854 32.4958)" fill="#FFFFFF" font-family="'STHeitiSC-Light'" font-size="10.5">4</text>
</g>
</svg>
