<?xml version="1.0" encoding="utf-8"?>
<!-- Generator: Adobe Illustrator 17.0.0, SVG Export Plug-In . SVG Version: 6.00 Build 0)  -->
<!DOCTYPE svg PUBLIC "-//W3C//DTD SVG 1.1//EN" "http://www.w3.org/Graphics/SVG/1.1/DTD/svg11.dtd">
<svg version="1.1" id="图层_1" xmlns="http://www.w3.org/2000/svg" xmlns:xlink="http://www.w3.org/1999/xlink" x="0px" y="0px"
	 width="32px" height="32px" viewBox="0 0 32 32" enable-background="new 0 0 32 32" xml:space="preserve">
<path fill="#E87A49" d="M32,30c0,1.105-0.41,2-1.532,2H2.532C1.41,32,0,31.105,0,30V2c0-1.105,1.41-2,2.532-2h27.937
	C31.59,0,32,0.895,32,2V30z"/>
<g>
	<g>
		<path fill="#FFFFFF" d="M13.021,23.007c0.13,0,0.26-0.049,0.359-0.146l7.183-7.071L13.38,8.719c-0.198-0.195-0.52-0.195-0.718,0
			c-0.198,0.195-0.198,0.512,0,0.707l6.465,6.364l-6.465,6.364c-0.198,0.195-0.198,0.512,0,0.707
			C12.761,22.958,12.891,23.007,13.021,23.007z"/>
	</g>
</g>
</svg>
