<?xml version="1.0" encoding="utf-8"?>
<!-- Generator: Adobe Illustrator 16.0.0, SVG Export Plug-In . SVG Version: 6.00 Build 0)  -->
<!DOCTYPE svg PUBLIC "-//W3C//DTD SVG 1.1//EN" "http://www.w3.org/Graphics/SVG/1.1/DTD/svg11.dtd">
<svg version="1.1" id="图层_1" xmlns="http://www.w3.org/2000/svg" xmlns:xlink="http://www.w3.org/1999/xlink" x="0px" y="0px"
	 width="44px" height="44px" viewBox="0 0 44 44" enable-background="new 0 0 44 44" xml:space="preserve">
<g>
	<g>
		<path fill="#E24040" d="M10.041,15.415c0.148,0.147,0.389,0.115,0.723-0.101c0.521-0.341,0.974-0.526,1.363-0.551
			c0.39-0.025,0.727,0.104,1.012,0.39c0.286,0.286,0.543,0.702,0.774,1.251c0.229,0.548,0.152,1.016-0.234,1.402
			c-0.26,0.26-0.827,0.618-1.696,1.074c-0.872,0.457-1.539,0.622-1.999,0.495c-0.459-0.126-1.082-0.582-1.868-1.368l-4.563-4.562
			c-0.778-0.778-1.204-1.47-1.275-2.076c-0.07-0.606,0.206-1.218,0.83-1.842L7.47,5.166c0.452-0.452,0.85-0.66,1.191-0.623
			c0.341,0.038,0.708,0.252,1.1,0.645c0.786,0.787,0.938,1.42,0.458,1.903c-0.12,0.119-0.178,0.224-0.173,0.317
			c0.004,0.094,0.058,0.192,0.161,0.295l3.216,3.215c0.127,0.126,0.249,0.129,0.367,0.011l0.867-0.868
			c0.082-0.081,0.127-0.153,0.133-0.211c0.007-0.06-0.026-0.127-0.1-0.201l-3.548-3.55c-0.134-0.134-0.235-0.264-0.302-0.39
			c-0.186-0.318-0.414-0.614-0.684-0.885C9.885,4.555,9.681,4.379,9.539,4.298C9.398,4.217,9.294,4.142,9.229,4.075
			C8.82,3.667,8.999,3.08,9.761,2.318c0.401-0.402,0.767-0.625,1.097-0.674c0.33-0.048,0.643,0.076,0.94,0.373l6.309,6.31
			c0.513,0.511,0.779,1.045,0.801,1.602s-0.197,1.064-0.655,1.524l-2.292,2.292c-0.728,0.728-1.341,1.127-1.842,1.196
			c-0.501,0.071-1.021-0.165-1.563-0.706L8.094,9.773C7.945,9.625,7.816,9.604,7.705,9.716l-1.502,1.501
			c-0.119,0.118-0.116,0.241,0.011,0.367L10.041,15.415z"/>
		<path fill="#E24040" d="M13.768,21.834l4.618-4.285c0.074-0.059,0.111-0.11,0.111-0.155c0-0.044-0.033-0.101-0.1-0.167
			l-0.345-0.345c-0.326-0.325-0.476-0.618-0.45-0.873c0.027-0.256,0.209-0.555,0.551-0.896c0.341-0.341,0.643-0.522,0.901-0.544
			c0.26-0.022,0.548,0.127,0.867,0.446l0.489,0.49c0.097,0.096,0.138,0.227,0.121,0.389c-0.059,0.4,0.068,0.756,0.38,1.069
			c0.245,0.244,0.563,0.414,0.957,0.511c0.14,0.037,0.24,0.085,0.299,0.144c0.134,0.133,0.038,0.349-0.289,0.645l-3.793,3.461
			c-0.083,0.067-0.095,0.129-0.04,0.186c0.057,0.056,0.149,0.112,0.285,0.171c0.133,0.06,0.233,0.121,0.294,0.183
			c0.064,0.062,0.105,0.135,0.128,0.218c0.022,0.081,0.005,0.148-0.05,0.206c-0.054,0.056-0.254,0.112-0.595,0.171
			c-1.083,0.179-1.782,0.318-2.097,0.418c-0.316,0.101-0.538,0.215-0.668,0.346c-0.13,0.13-0.22,0.196-0.272,0.205
			c-0.052,0.008-0.233-0.032-0.545-0.12c-0.311-0.091-0.568-0.172-0.769-0.245c-0.198-0.076-0.341-0.153-0.421-0.233
			c-0.155-0.156-0.201-0.357-0.134-0.603C13.268,22.38,13.458,22.116,13.768,21.834z M23.281,30.926
			c-0.384,0.384-0.798,0.539-1.24,0.46c-0.441-0.076-0.759-0.216-0.957-0.413c-0.196-0.193-0.308-0.447-0.333-0.754
			c-0.026-0.309,0.023-0.756,0.149-1.342c0.127-0.588,0.333-1.231,0.618-1.932c0.285-0.699,0.468-1.09,0.55-1.173
			c0.021-0.023,0.09-0.058,0.204-0.106c0.116-0.047,0.319-0.162,0.613-0.345c0.291-0.182,0.466-0.3,0.522-0.355
			c0.055-0.057,0.063-0.128,0.021-0.223c-0.041-0.094-0.085-0.163-0.132-0.212c-0.049-0.048-0.111-0.05-0.185-0.006
			c-1.106,0.733-2.238,1.247-3.394,1.536c-1.158,0.287-2.008,0.436-2.554,0.44c-0.546,0.003-0.956-0.133-1.229-0.408
			c-0.276-0.273-0.435-0.623-0.48-1.044c-0.043-0.426,0.039-0.739,0.246-0.946c0.288-0.289,0.919-0.489,1.892-0.601
			c0.971-0.113,1.921-0.395,2.849-0.847c0.927-0.451,1.908-1.021,2.942-1.708c1.034-0.686,2.188-1.663,3.456-2.931
			c0.289-0.289,0.643-0.404,1.057-0.345c0.416,0.059,0.814,0.278,1.191,0.655c0.377,0.378,0.574,0.742,0.589,1.091
			c0.017,0.349-0.129,0.675-0.432,0.979c-1.76,1.759-2.77,2.808-3.027,3.149c-0.261,0.341-0.56,0.854-0.894,1.54
			c-0.34,0.688-0.613,1.372-0.825,2.06c-0.212,0.686-0.354,1.34-0.429,1.962C23.977,29.891,23.713,30.495,23.281,30.926z
			 M23.817,12.965c0.318,0.319,0.417,0.983,0.294,1.988c-0.121,1.005-0.319,1.644-0.594,1.919c-0.215,0.214-0.579,0.275-1.09,0.178
			c-0.513-0.097-0.878-0.255-1.097-0.473c-0.218-0.219-0.302-0.519-0.251-0.897c0.096-0.645,0.175-1.293,0.233-1.948
			c0.03-0.325,0.168-0.611,0.411-0.856c0.245-0.244,0.603-0.343,1.075-0.293C23.271,12.63,23.608,12.758,23.817,12.965z"/>
		<path fill="#E24040" d="M29.179,32.506c-0.081,0.065-0.09,0.134-0.027,0.194c0.064,0.064,0.141,0.123,0.234,0.177
			c0.094,0.056,0.168,0.113,0.228,0.175c0.215,0.215,0.262,0.56,0.14,1.029c-0.123,0.47-0.272,0.795-0.451,0.972
			c-0.177,0.179-0.429,0.276-0.753,0.295c-0.32,0.02-1.006-0.137-2.05-0.462c-1.046-0.326-1.684-0.604-1.915-0.835
			c-0.423-0.422-0.251-0.979,0.514-1.668l3.839-3.482c0.081-0.069,0.12-0.129,0.115-0.186c-0.003-0.056-0.05-0.128-0.14-0.218
			c-0.341-0.341-0.505-0.657-0.493-0.951c0.011-0.293,0.21-0.633,0.601-1.025c0.39-0.388,0.699-0.574,0.929-0.561
			c0.229,0.017,0.535,0.211,0.912,0.591l1.425,1.423c0.341,0.342,0.494,0.666,0.463,0.975c-0.036,0.31-0.243,0.632-0.629,0.974
			L29.179,32.506z M34.288,40.196c0.355,0.354,0.538,0.664,0.549,0.928c0.012,0.264-0.187,0.599-0.595,1.009
			c-0.408,0.408-0.74,0.609-0.994,0.607c-0.257-0.007-0.569-0.192-0.942-0.562l-6.309-6.312c-0.222-0.222-0.286-0.382-0.188-0.479
			c0.096-0.097,0.363-0.067,0.802,0.091c0.792,0.273,1.437,0.408,1.93,0.404c0.494-0.004,0.863-0.127,1.107-0.372
			c0.244-0.244,0.439-0.588,0.585-1.031c0.143-0.44,0.202-0.76,0.171-0.961c-0.03-0.202-0.038-0.333-0.028-0.395
			c0.011-0.064,0.064-0.144,0.162-0.24l2.346-2.346c0.418-0.417,0.764-0.607,1.044-0.574c0.278,0.034,0.589,0.225,0.938,0.574
			c0.35,0.347,0.545,0.652,0.588,0.912c0.046,0.261-0.156,0.613-0.601,1.059l-3.984,3.981c-0.058,0.062-0.081,0.116-0.065,0.168
			c0.015,0.053,0.062,0.118,0.145,0.201c0.083,0.08,0.15,0.134,0.205,0.162c0.055,0.025,0.117,0.006,0.185-0.062l5.408-5.407
			c0.068-0.067,0.064-0.139-0.01-0.212l-1.724-1.726c-0.329-0.325-0.489-0.644-0.48-0.956s0.188-0.645,0.541-0.995
			c0.352-0.353,0.672-0.537,0.963-0.552c0.288-0.015,0.61,0.156,0.967,0.512l4.708,4.706c0.288,0.288,0.437,0.606,0.444,0.947
			s-0.156,0.679-0.488,1.012c-0.335,0.333-0.659,0.505-0.975,0.516s-0.641-0.149-0.974-0.483l-0.789-0.791
			c-0.083-0.083-0.157-0.088-0.225-0.022l-1.347,1.348c-0.072,0.073-0.068,0.152,0.011,0.233l0.803,0.801
			c0.274,0.274,0.396,0.55,0.362,0.83c-0.034,0.276-0.236,0.603-0.606,0.972c-0.371,0.374-0.693,0.573-0.97,0.602
			c-0.273,0.031-0.548-0.091-0.823-0.366l-0.822-0.823c-0.067-0.066-0.129-0.069-0.188-0.012l-1.868,1.868
			c-0.046,0.045-0.068,0.08-0.068,0.101c0,0.023,0.023,0.054,0.068,0.099L34.288,40.196z M34.532,24.081
			c0.156,0.157,0.263,0.383,0.323,0.681s0.066,0.669,0.022,1.112c-0.046,0.445-0.083,0.789-0.116,1.028
			c-0.035,0.242-0.147,0.459-0.341,0.651c-0.19,0.193-0.506,0.288-0.94,0.283c-0.435-0.003-0.792-0.146-1.073-0.428
			s-0.397-0.677-0.345-1.183c0.052-0.502,0.084-0.928,0.102-1.276c0.013-0.352,0.138-0.644,0.377-0.881
			c0.236-0.237,0.575-0.349,1.012-0.334C33.991,23.752,34.316,23.867,34.532,24.081z"/>
	</g>
	<g>
		<g>
			<path fill="#E24040" d="M14.955,3.452c6.814-2.458,15.429-1.243,21.134,4.46c5.704,5.704,6.92,14.319,4.461,21.134l1.707,1.707
				c3.293-7.832,2-17.827-4.592-24.419C31.072-0.258,21.08-1.552,13.244,1.742L14.955,3.452z"/>
		</g>
		<g>
			<path fill="#E24040" d="M28.908,40.588c-6.839,2.433-15.312,1.139-20.971-4.523c-5.66-5.66-6.955-14.131-4.522-20.97L1.7,13.38
				c-3.264,7.862-1.889,17.715,4.661,24.263c6.548,6.549,16.401,7.925,24.264,4.661L28.908,40.588z"/>
		</g>
	</g>
</g>
</svg>
