<?xml version="1.0" encoding="utf-8"?>
<!-- Generator: Adobe Illustrator 16.0.0, SVG Export Plug-In . SVG Version: 6.00 Build 0)  -->
<!DOCTYPE svg PUBLIC "-//W3C//DTD SVG 1.1//EN" "http://www.w3.org/Graphics/SVG/1.1/DTD/svg11.dtd">
<svg version="1.1" id="图层_1" xmlns="http://www.w3.org/2000/svg" xmlns:xlink="http://www.w3.org/1999/xlink" x="0px" y="0px"
	 width="44px" height="44px" viewBox="0 0 44 44" enable-background="new 0 0 44 44" xml:space="preserve">
<g>
	<g>
		<path fill="#06BAA8" d="M10.002,15.356c0.148,0.148,0.388,0.115,0.72-0.1c0.519-0.34,0.97-0.523,1.358-0.548
			c0.388-0.026,0.725,0.103,1.008,0.388c0.285,0.285,0.542,0.699,0.771,1.246c0.229,0.546,0.151,1.012-0.233,1.397
			c-0.259,0.259-0.822,0.615-1.69,1.07c-0.868,0.455-1.532,0.619-1.991,0.493c-0.459-0.125-1.08-0.581-1.863-1.363l-4.545-4.545
			c-0.776-0.775-1.198-1.464-1.27-2.068c-0.069-0.603,0.206-1.214,0.826-1.834l4.345-4.345C7.89,4.697,8.286,4.49,8.626,4.527
			s0.706,0.25,1.097,0.643c0.784,0.783,0.934,1.415,0.455,1.896c-0.118,0.118-0.175,0.224-0.172,0.316
			c0.004,0.094,0.057,0.19,0.16,0.293l3.204,3.204c0.126,0.125,0.248,0.128,0.366,0.011l0.864-0.864
			c0.081-0.081,0.126-0.152,0.133-0.211c0.007-0.06-0.026-0.126-0.1-0.2l-3.535-3.537c-0.133-0.133-0.234-0.262-0.299-0.388
			c-0.185-0.318-0.412-0.612-0.682-0.882c-0.27-0.27-0.476-0.445-0.615-0.526c-0.14-0.081-0.244-0.155-0.31-0.222
			c-0.407-0.406-0.229-0.99,0.531-1.75c0.398-0.4,0.763-0.624,1.092-0.672c0.329-0.048,0.641,0.076,0.937,0.372l6.285,6.286
			c0.511,0.51,0.777,1.042,0.799,1.596c0.021,0.555-0.196,1.061-0.654,1.519l-2.283,2.284c-0.725,0.725-1.336,1.122-1.834,1.192
			s-1.018-0.165-1.557-0.704L8.062,9.736C7.914,9.588,7.785,9.569,7.674,9.68l-1.496,1.496c-0.118,0.118-0.115,0.24,0.011,0.366
			L10.002,15.356z"/>
		<path fill="#06BAA8" d="M25.368,16.443c0.08,0.081,0.145,0.125,0.188,0.133s0.103-0.026,0.177-0.101
			c0.191-0.192,0.475-0.234,0.848-0.127c0.373,0.106,0.78,0.382,1.224,0.825c0.652,0.651,0.752,1.232,0.302,1.742
			c-0.082,0.096-0.068,0.199,0.044,0.311l2.229,2.229c0.383,0.386,0.572,0.731,0.57,1.037c-0.003,0.306-0.204,0.657-0.599,1.053
			c-0.396,0.396-0.753,0.595-1.074,0.599c-0.323,0.005-0.669-0.179-1.038-0.548l-2.306-2.305c-0.08-0.082-0.134-0.146-0.159-0.194
			c-0.025-0.048-0.031-0.132-0.018-0.25c0.051-0.422-0.093-0.803-0.432-1.143c-0.186-0.185-0.436-0.357-0.748-0.515
			c-0.313-0.158-0.557-0.256-0.727-0.293c-0.17-0.037-0.297-0.08-0.381-0.127c-0.086-0.048-0.191-0.134-0.317-0.26l-0.986-0.986
			c-0.059-0.059-0.113-0.083-0.16-0.073c-0.048,0.011-0.132,0.076-0.25,0.195c-0.082,0.083-0.178,0.104-0.288,0.067
			c-0.688-0.213-1.241-0.111-1.663,0.311c-0.222,0.222-0.436,0.555-0.643,0.997c-0.546,1.168-0.966,1.898-1.258,2.189
			c-0.293,0.292-0.492,0.461-0.599,0.509c-0.107,0.048-0.221,0.021-0.338-0.083c-0.377-0.333-0.756-0.471-1.137-0.415
			c-0.381,0.055-0.749,0.261-1.108,0.621c-0.357,0.358-0.592,0.605-0.699,0.742c-0.107,0.138-0.19,0.235-0.25,0.294
			c-0.318,0.318-0.608,0.345-0.87,0.084c-0.263-0.264-0.431-0.617-0.509-1.063c-0.077-0.447,0.075-0.863,0.46-1.247
			c0.252-0.252,0.66-0.501,1.226-0.748c0.566-0.248,1.167-0.568,1.807-0.964c0.64-0.396,1.14-0.774,1.503-1.137l3.104-3.104
			c0.538-0.54,1.062-0.809,1.568-0.804c0.505,0.004,1.032,0.279,1.58,0.825L25.368,16.443z M23.394,28.746
			c0.355,0.355,0.529,0.674,0.527,0.96c-0.006,0.283-0.23,0.65-0.677,1.097c-0.447,0.447-0.814,0.672-1.098,0.677
			c-0.285,0.003-0.604-0.174-0.959-0.528L14.735,24.5c-0.363-0.361-0.54-0.69-0.533-0.986c0.007-0.295,0.229-0.662,0.665-1.098
			c0.437-0.435,0.8-0.655,1.091-0.659c0.292-0.004,0.62,0.175,0.98,0.539l0.366,0.365c0.081,0.082,0.149,0.234,0.205,0.461
			c0.055,0.225,0.201,0.456,0.438,0.692c0.237,0.237,0.544,0.419,0.92,0.542c0.125,0.037,0.222,0.09,0.288,0.157l0.842,0.842
			c0.097,0.095,0.154,0.181,0.171,0.25c0.02,0.069,0.017,0.161-0.005,0.271c-0.059,0.297-0.027,0.634,0.095,1.014
			c0.122,0.38,0.312,0.7,0.571,0.958c0.495,0.495,1.119,0.663,1.873,0.5c0.155-0.037,0.298,0.011,0.432,0.144L23.394,28.746z
			 M22.02,18.659c0.148,0.148,0.25,0.317,0.306,0.504c0.056,0.188,0.059,0.373,0.011,0.554c-0.047,0.181-0.228,0.574-0.538,1.181
			c-0.311,0.606-0.598,1.132-0.864,1.574c-0.266,0.444-0.502,0.768-0.71,0.974c-0.34,0.34-0.684,0.484-1.031,0.434
			s-0.634-0.189-0.859-0.416c-0.226-0.225-0.353-0.485-0.382-0.779c-0.029-0.297,0.047-0.581,0.233-0.854
			c0.546-0.828,1.027-1.693,1.44-2.594c0.17-0.363,0.34-0.628,0.511-0.798c0.281-0.281,0.611-0.369,0.992-0.26
			C21.507,18.284,21.805,18.445,22.02,18.659z M27.495,25.576c-0.311,0.31-0.795,0.609-1.453,0.898l-2.16,0.941
			c-0.799,0.34-1.383,0.495-1.751,0.466c-0.37-0.03-0.678-0.169-0.926-0.416c-0.248-0.248-0.417-0.567-0.504-0.96
			c-0.089-0.391-0.041-0.679,0.144-0.863c0.185-0.185,0.38-0.233,0.588-0.145c0.45,0.171,0.836,0.232,1.158,0.185
			c0.322-0.049,0.594-0.185,0.816-0.404c0.222-0.222,0.433-0.471,0.637-0.749c0.203-0.278,0.374-0.485,0.516-0.626
			c0.14-0.141,0.455-0.314,0.942-0.521c0.486-0.206,0.844-0.308,1.07-0.306c0.226,0.003,0.438,0.105,0.637,0.306
			c0.385,0.385,0.62,0.754,0.709,1.108C28.006,24.845,27.864,25.206,27.495,25.576z M24.902,20.057
			c0.169,0.169,0.273,0.365,0.311,0.587c0.037,0.222-0.046,0.589-0.249,1.103c-0.205,0.514-0.479,1.07-0.826,1.668
			c-0.349,0.598-0.65,1.027-0.91,1.285c-0.385,0.386-0.811,0.517-1.28,0.394c-0.47-0.12-0.797-0.275-0.981-0.46
			c-0.302-0.303-0.248-0.8,0.167-1.496c0.591-0.975,1.098-1.917,1.519-2.827c0.126-0.273,0.26-0.48,0.398-0.62
			c0.288-0.288,0.621-0.347,0.998-0.177S24.708,19.863,24.902,20.057z"/>
		<path fill="#06BAA8" d="M28.104,36.518c-0.302,0.303-0.594,0.437-0.874,0.398c-0.281-0.036-0.621-0.253-1.018-0.647
			c-0.393-0.396-0.626-0.722-0.695-0.977c-0.07-0.254,0.031-0.519,0.305-0.792l0.432-0.433c0.074-0.072,0.112-0.132,0.112-0.177
			s-0.038-0.097-0.112-0.155l-1.563-1.363c-0.303-0.274-0.446-0.555-0.429-0.848c0.021-0.292,0.193-0.604,0.522-0.932
			c0.328-0.329,0.595-0.531,0.802-0.604c0.209-0.074,0.423-0.067,0.644,0.021c0.074,0.028,0.129,0.043,0.167,0.043
			s0.1-0.043,0.189-0.132l4.578-4.578c0.072-0.073,0.089-0.155,0.043-0.245c-0.088-0.176-0.088-0.363,0.006-0.559
			c0.092-0.195,0.291-0.447,0.599-0.755c0.307-0.306,0.605-0.468,0.899-0.486c0.292-0.02,0.562,0.096,0.813,0.349l3.281,3.281
			c0.349,0.348,0.461,0.581,0.344,0.698c-0.067,0.065-0.185,0.065-0.354,0c-0.614-0.259-1.294-0.016-2.04,0.73l-1.696,1.696
			c-0.199,0.201-0.329,0.317-0.394,0.351c-0.062,0.032-0.143,0.019-0.243-0.046c-0.099-0.062-0.249-0.037-0.449,0.072
			c-0.199,0.111-0.481,0.35-0.849,0.715c-0.363,0.366-0.583,0.717-0.652,1.054c-0.069,0.338,0.05,0.704,0.361,1.103
			c0.146,0.192,0.174,0.337,0.077,0.434c-0.044,0.045-0.142,0.102-0.293,0.171c-0.152,0.069-0.312,0.19-0.482,0.36
			c-0.169,0.17-0.278,0.316-0.327,0.438c-0.048,0.121-0.25,0.36-0.604,0.714L28.104,36.518z M28.737,32.14l0.556-0.553
			c0.073-0.075,0.084-0.138,0.032-0.19l-0.311-0.31c-0.075-0.074-0.148-0.074-0.223,0l-0.555,0.554
			c-0.095,0.096-0.107,0.182-0.033,0.254l0.289,0.289C28.56,32.25,28.64,32.234,28.737,32.14z M36.297,36.262
			c0.642,0.644,1.252,0.913,1.83,0.81c0.199-0.037,0.332-0.021,0.398,0.044c0.148,0.148-0.029,0.476-0.532,0.976
			c-0.333,0.333-0.64,0.487-0.921,0.466c-0.28-0.021-0.602-0.215-0.964-0.575l-2.051-2.053c-0.052-0.051-0.094-0.072-0.127-0.059
			c-0.033,0.008-0.085,0.048-0.15,0.115c-0.065,0.066-0.1,0.117-0.1,0.155c0,0.037,0.03,0.085,0.089,0.145l1.475,1.474
			c0.627,0.629,0.656,1.227,0.09,1.795c-0.268,0.266-0.763,0.646-1.488,1.142c-0.725,0.496-1.292,0.763-1.701,0.804
			c-0.409,0.04-0.848-0.171-1.313-0.637l-1.618-1.618c-0.237-0.235-0.339-0.503-0.306-0.803c0.035-0.3,0.198-0.598,0.492-0.894
			c0.637-0.635,1.204-0.701,1.707-0.199l0.811,0.809c0.133,0.134,0.259,0.141,0.376,0.021c0.118-0.117,0.177-0.203,0.177-0.254
			s-0.041-0.118-0.122-0.199l-1.673-1.674c-0.531-0.532-0.593-1.004-0.178-1.42c0.244-0.244,0.647-0.461,1.209-0.654
			c0.088-0.028,0.152-0.063,0.188-0.101c0.037-0.037-0.004-0.115-0.122-0.232c-0.503-0.503-0.762-0.904-0.775-1.208
			c-0.015-0.303,0.151-0.629,0.499-0.976c0.349-0.348,0.572-0.47,0.677-0.366c0.059,0.059,0.084,0.189,0.079,0.388
			c-0.023,0.466,0.238,0.974,0.785,1.52L36.297,36.262z M30.82,30.054l0.423-0.421c0.088-0.09,0.106-0.159,0.054-0.21l-0.311-0.313
			c-0.073-0.073-0.155-0.067-0.243,0.023l-0.423,0.42c-0.096,0.097-0.107,0.182-0.032,0.255l0.287,0.288
			C30.644,30.166,30.724,30.15,30.82,30.054z M32.872,28.005l0.477-0.478c0.073-0.074,0.084-0.139,0.032-0.188l-0.31-0.312
			c-0.073-0.074-0.148-0.074-0.222,0l-0.478,0.476c-0.082,0.082-0.084,0.161-0.011,0.234l0.289,0.288
			C32.717,28.093,32.791,28.085,32.872,28.005z M39.013,35.985c-0.393,0.392-0.779,0.583-1.159,0.569
			c-0.38-0.011-0.781-0.227-1.201-0.647l-3.258-3.258c-0.399-0.399-0.6-0.769-0.6-1.108s0.206-0.717,0.62-1.131l1.696-1.695
			c0.407-0.406,0.779-0.625,1.118-0.654c0.34-0.03,0.673,0.118,0.998,0.444l0.621,0.619c0.066,0.065,0.12,0.102,0.16,0.105
			s0.098-0.032,0.172-0.105c0.562-0.561,1.195-0.491,1.901,0.217c0.705,0.705,0.767,1.35,0.184,1.935
			c-0.052,0.052-0.079,0.095-0.079,0.132c0,0.038,0.038,0.092,0.112,0.166l0.599,0.6c0.333,0.332,0.485,0.666,0.46,1.002
			c-0.025,0.337-0.242,0.708-0.648,1.114L39.013,35.985z M35.397,32.571c0.06,0.059,0.113,0.084,0.155,0.078
			c0.045-0.009,0.118-0.064,0.223-0.166c0.103-0.104,0.16-0.176,0.171-0.217c0.011-0.04-0.009-0.089-0.061-0.14l-0.478-0.476
			c-0.051-0.051-0.099-0.07-0.143-0.057c-0.044,0.017-0.116,0.072-0.216,0.171c-0.102,0.101-0.157,0.172-0.168,0.212
			c-0.011,0.041,0.011,0.086,0.062,0.139L35.397,32.571z M36.741,31.229c0.059,0.06,0.112,0.085,0.16,0.071
			c0.048-0.011,0.122-0.065,0.222-0.166c0.1-0.099,0.155-0.169,0.166-0.211c0.011-0.041-0.011-0.088-0.062-0.137l-0.476-0.478
			c-0.06-0.06-0.11-0.079-0.15-0.061s-0.109,0.075-0.204,0.173c-0.096,0.095-0.151,0.167-0.166,0.21
			c-0.015,0.046,0.003,0.094,0.055,0.145L36.741,31.229z M37.284,34.455c0.059,0.059,0.109,0.085,0.155,0.077
			c0.043-0.008,0.115-0.06,0.215-0.16c0.101-0.099,0.155-0.174,0.166-0.223c0.011-0.048-0.009-0.099-0.06-0.149l-0.434-0.431
			c-0.074-0.075-0.134-0.099-0.184-0.072c-0.047,0.025-0.118,0.084-0.21,0.177c-0.094,0.094-0.144,0.16-0.149,0.206
			c-0.009,0.043,0.017,0.095,0.077,0.153L37.284,34.455z M38.624,33.114c0.06,0.06,0.112,0.083,0.161,0.072
			c0.048-0.011,0.121-0.066,0.222-0.166c0.1-0.102,0.152-0.171,0.161-0.217c0.008-0.044-0.014-0.093-0.067-0.144l-0.431-0.432
			c-0.066-0.066-0.123-0.093-0.167-0.078c-0.046,0.015-0.115,0.07-0.212,0.167c-0.095,0.097-0.148,0.167-0.159,0.217
			c-0.012,0.048,0.011,0.102,0.072,0.16L38.624,33.114z"/>
	</g>
	<g>
		<g>
			<path fill="#06BAA8" d="M14.898,3.439c6.789-2.448,15.371-1.238,21.054,4.444c5.682,5.682,6.893,14.265,4.443,21.054l1.701,1.7
				c3.28-7.803,1.992-17.759-4.574-24.326C30.954-0.256,21-1.546,13.194,1.735L14.898,3.439z"/>
		</g>
		<g>
			<path fill="#06BAA8" d="M28.799,40.435c-6.813,2.424-15.254,1.134-20.892-4.506c-5.639-5.64-6.929-14.078-4.505-20.891
				l-1.708-1.708c-3.252,7.833-1.882,17.647,4.643,24.172c6.524,6.523,16.339,7.894,24.172,4.643L28.799,40.435z"/>
		</g>
	</g>
</g>
</svg>
